<svg fill="none" height="31" viewBox="0 0 33 31" width="33" xmlns="http://www.w3.org/2000/svg" xmlns:xlink="http://www.w3.org/1999/xlink"><linearGradient id="a" gradientUnits="userSpaceOnUse" x1="19.6056" x2="3.15553" y1="4.87919" y2="27.0954"><stop offset="0" stop-color="#ff438c"/><stop offset="1" stop-color="#487aff"/></linearGradient><g fill="url(#a)"><path d="m12.0315 9.72975c-1.4918-1.85831-1.7883-4.54745-.5484-6.7576 1.5946-2.842166 5.1261-3.815965 7.8879-2.175037 2.7619 1.640927 3.7081 5.275197 2.1136 8.117367-1.2407 2.21142-3.6539 3.29172-5.9649 2.88942l-3.2015 5.7065c-.5554.9901-1.7868 1.3287-2.75018.7562-.96343-.5724-1.29414-1.839-.73867-2.8291z"/><path d="m26.2627 19.1595c2.3103-.4012 4.7225.6791 5.9627 2.8898 1.5946 2.8422.6483 6.4764-2.1135 8.1174-2.7619 1.6409-6.2934.6671-7.8879-2.1751-1.2404-2.2108-.9433-4.9009.5498-6.7593l-3.2032-5.7094c-.5555-.9901-.2248-2.2568.7387-2.8292.9634-.5724 2.1947-.2338 2.7502.7563z"/><path d="m11.1864 27.134c-.8183 2.2579-2.9327 3.866-5.41206 3.866-3.18908 0-5.77434-2.6605-5.77434-5.9423 0-3.2819 2.58526-5.9424 5.77434-5.9424 2.48185 0 4.59796 1.6114 5.41456 3.8729h6.3969c1.1155 0 2.0198.9281 2.0198 2.0729s-.9043 2.0729-2.0198 2.0729z"/></g></svg>