<svg fill="none" height="235" viewBox="0 0 250 235" width="250" xmlns="http://www.w3.org/2000/svg" xmlns:xlink="http://www.w3.org/1999/xlink"><linearGradient id="a" gradientUnits="userSpaceOnUse" x1="148.527" x2="23.8017" y1="36.9874" y2="205.323"><stop offset="0" stop-color="#ff438c"/><stop offset="1" stop-color="#487aff"/></linearGradient><g fill="url(#a)"><path d="m91.1481 73.7578c-11.3022-14.0872-13.5483-34.4726-4.1546-51.2269 12.0798-21.545534 38.8335-28.92756 59.7565-16.48827 20.923 12.43927 28.092 39.98937 16.012 61.53487-9.399 16.7636-27.681 24.9531-45.188 21.9034l-24.2541 43.2591c-4.2081 7.505-13.5362 10.072-20.8349 5.733s-9.8041-13.941-5.596-21.447z"/><path d="m198.96 145.242c17.502-3.042 35.776 5.147 45.172 21.906 12.08 21.545 4.911 49.096-16.012 61.535s-47.677 5.057-59.757-16.488c-9.396-16.76-7.146-37.153 4.165-51.24l-24.266-43.281c-4.208-7.506-1.703-17.108 5.596-21.4474 7.299-4.3393 16.627-1.7725 20.835 5.7334z"/><path d="m84.7454 205.693c-6.1993 17.117-22.2174 29.307-41.0004 29.307-24.1597 0-43.745-20.168-43.745-45.047 0-24.878 19.5853-45.046 43.745-45.046 18.8019 0 34.8333 12.214 41.0191 29.358h48.4619c8.451 0 15.301 7.036 15.301 15.714 0 8.679-6.851 15.714-15.301 15.714z"/></g></svg>