<svg width="40" height="40" viewBox="0 0 40 40" fill="none" xmlns="http://www.w3.org/2000/svg">
<g id="attach_file" clip-path="url(#clip0_133_10319)">
<path id="Vector" d="M27.5001 11.2499V28.8833C27.5001 32.3666 24.9501 35.4666 21.4834 35.7999C17.5001 36.1833 14.1667 33.0666 14.1667 29.1666V8.56658C14.1667 6.38325 15.7334 4.39992 17.9001 4.18325C20.4001 3.93325 22.5001 5.88325 22.5001 8.33325V25.8333C22.5001 26.7499 21.7501 27.4999 20.8334 27.4999C19.9167 27.4999 19.1667 26.7499 19.1667 25.8333V11.2499C19.1667 10.5666 18.6001 9.99992 17.9167 9.99992C17.2334 9.99992 16.6667 10.5666 16.6667 11.2499V25.5999C16.6667 27.7832 18.2334 29.7666 20.4001 29.9833C22.9001 30.2333 25.0001 28.2833 25.0001 25.8333V8.61658C25.0001 5.13325 22.4501 2.03325 18.9834 1.69992C15.0167 1.31658 11.6667 4.43325 11.6667 8.33325V28.7833C11.6667 33.5666 15.1667 37.8499 19.9334 38.2999C25.4167 38.7999 30.0001 34.5333 30.0001 29.1666V11.2499C30.0001 10.5666 29.4334 9.99992 28.7501 9.99992C28.0667 9.99992 27.5001 10.5666 27.5001 11.2499Z" fill="white"/>
</g>
<defs>
<clipPath id="clip0_133_10319">
<rect width="40" height="40" fill="white"/>
</clipPath>
</defs>
</svg>
